<svg id="Layer_1" data-name="Layer 1" xmlns="http://www.w3.org/2000/svg" viewBox="0 0 955 248"><defs><style>.cls-1{fill:#5f9ea0;}.cls-2{fill:#fff;}</style></defs><rect class="cls-1" width="955" height="248"/><path class="cls-2" d="M881.5,47.67A5.94,5.94,0,0,0,889.77,46l13.68-20.59a12.29,12.29,0,0,0-3.36-17,12.13,12.13,0,0,0-16.89,3.38L876.43,22A18.56,18.56,0,0,0,881.5,47.67Z" transform="translate(13 7)"/><path class="cls-2" d="M889,64a6,6,0,0,0,7,4.71l24.15-4.83a12.24,12.24,0,0,0-4.75-24l-12,2.39A18.48,18.48,0,0,0,889,64" transform="translate(13 7)"/><path class="cls-2" d="M908.38,75.84a18.34,18.34,0,0,0-25.52,5.1,6,6,0,0,0,1.65,8.32L905,103a12.13,12.13,0,0,0,16.89-3.38,12.29,12.29,0,0,0-3.36-17Z" transform="translate(13 7)"/><path class="cls-2" d="M861.91,95.57l4.8,24.29a12.18,12.18,0,1,0,23.89-4.78l-2.38-12a18.41,18.41,0,0,0-21.63-14.54A6,6,0,0,0,861.91,95.57Z" transform="translate(13 7)"/><path class="cls-2" d="M841.5,84l-13.68,20.59a12.29,12.29,0,0,0,3.36,17,12.13,12.13,0,0,0,16.89-3.38L854.84,108a18.56,18.56,0,0,0-5.08-25.66A5.94,5.94,0,0,0,841.49,84" transform="translate(13 7)"/><path class="cls-2" d="M801.5,80.48a12.18,12.18,0,0,0,14.32,9.62l11.95-2.39A18.48,18.48,0,0,0,842.22,66a6,6,0,0,0-7-4.71l-24.15,4.83a12.25,12.25,0,0,0-9.57,14.4Z" transform="translate(13 7)"/><path class="cls-2" d="M812.76,47.33l10.13,6.81A18.34,18.34,0,0,0,848.41,49a6,6,0,0,0-1.65-8.32L826.29,27a12.13,12.13,0,0,0-16.89,3.38A12.29,12.29,0,0,0,812.76,47.33Z" transform="translate(13 7)"/><path class="cls-2" d="M930.52,159.94h-128a5,5,0,0,0-5,5v10.66a5,5,0,0,0,5,5h128a5,5,0,0,0,5-5V165A5,5,0,0,0,930.52,159.94Z" transform="translate(13 7)"/><path class="cls-2" d="M843,26.92a18.41,18.41,0,0,0,21.63,14.54,6,6,0,0,0,4.69-7.05l-4.81-24.29a12.18,12.18,0,1,0-23.89,4.78Z" transform="translate(13 7)"/><path class="cls-2" d="M59.67,54.46c-31,0-55.12,14-55.12,42.44,0,7.44,4,11.53,19.08,11.53s19.08-4.09,19.08-11.53c0-27.82,12.9-27.3,17-27.3,13.69,0,21.08,21.77,21.08,48.64s-7.4,48.64-21.08,48.64c-4.06,0-21.08.52-21.08-27.3,0-7.44-4-11.53-19.08-11.53S.43,132.14.43,139.58C.43,169.81,28.7,182,59.68,182c38.46,0,59.25-28.55,59.25-63.77S98.14,54.47,59.68,54.47" transform="translate(13 7)"/><path class="cls-2" d="M324.29,54.46c-31,0-55.12,14-55.12,42.44,0,7.44,4,11.53,19.08,11.53s19.08-4.09,19.08-11.53c0-27.82,12.9-27.3,17-27.3,13.69,0,21.08,21.77,21.08,48.64s-7.4,48.64-21.08,48.64c-4.06,0-21.08.52-21.08-27.3,0-7.44-4-11.53-19.08-11.53s-19.08,4.09-19.08,11.53c0,30.23,28.27,42.43,59.25,42.43,38.46,0,59.25-28.55,59.25-63.77S362.76,54.47,324.3,54.47" transform="translate(13 7)"/><path class="cls-2" d="M717.16,55.08c-35.84,0-57.06,22.49-57.06,63.05,0,22.73,6,40.18,9.79,50.5,4.39,11.9,9,12.74,16.76,12.74,10.73,0,20.86,1.39,16.63-20.34-2.49-12.83-6-29.27-6-42.76,0-25.9,1.46-48.18,19.91-48.18s19.9,22.29,19.9,48.18c0,13.49-3.53,29.93-6,42.76-4.23,21.73,5.9,20.34,16.63,20.34,7.74,0,12.37-.84,16.76-12.74,3.81-10.32,9.79-27.77,9.79-50.5,0-40.56-21.23-63-57.06-63" transform="translate(13 7)"/><path class="cls-2" d="M215.25,113.82v-1.14c21-3.89,30.39-14.71,30.39-28.26,0-18.3-26.28-29.94-54.29-29.94S137,65.6,137,89.63c.23,11,3.13,11.82,17.68,11.82s17.7-2.44,17.7-15c0-14.74,14.85-16.84,18.91-16.84,13.36,0,19,10.3,19,18.13,0,28.32-30.82,13.58-30.82,25.55s32.91-2.16,32.91,31c0,11.7-7.39,22.6-21.06,22.61-4.06,0-21.12.52-21.12-27.29,0-7.44-4-11.55-19.07-11.55s-19.08,4.09-19.08,11.53c0,29.21,28.29,42.43,59.26,42.43,38.44,0,59.23-17.31,59.23-36.64,0-14.83-12.27-27.51-35.33-31.52" transform="translate(13 7)"/><path class="cls-2" d="M498.31,54.46c-20.44,0-21.75,5.42-21.75,15.13v8.89c-8.24-3.54-24.12-6.23-36-5.08-17.53,1.69-35.17,7.42-35.17,21.48,0,15.6,12.91,14.47,18.85,14.47,15,0,16.84-5.58,18.85-10.92,2.83-7.51,8-10,15-10,15.39,0,18.88,21.61,18.88,39.21,0,20.87-6.87,39.21-22.34,39.21-4.06,0-21.08.52-21.08-27.3,0-7.44-4-11.53-19.08-11.53s-19.08,4.09-19.08,11.53c0,28.79,28.27,42.43,59.25,42.43,38.46,0,59.25-25.62,59.25-63.77V68.92c0-8,1.35-14.47-15.58-14.47" transform="translate(13 7)"/><path class="cls-2" d="M625.72,109.53c0-1.78,1.89-2.61,1.89-5.14,0-3.81-3.7-4.3-13.92-4.3-11.33,0-15,1.19-15,8.23,0,11.68,12.61,14.7,12.61,34.42,0,13.46-7.6,24.14-19.9,24.14-20.65,0-21.11-22.6-21.11-48.64V69.6c0-9.71-2.16-15.13-22.6-15.13-16.93,0-15.57,6.48-15.57,14.47v50.48c0,40.69,18.57,62.59,59.27,62.59,29.63,0,55-17.77,55-39.27,0-24.5-20.64-27.68-20.64-33.2" transform="translate(13 7)"/></svg>