<svg id="Layer_1" data-name="Layer 1" xmlns="http://www.w3.org/2000/svg" viewBox="0 0 960 1090.32"><defs><style>.cls-1,.cls-2{fill:#d12f2a;}.cls-2{font-size:172.56px;font-family:BPGClassic2008, "BPG Classic 2008";}</style></defs><polygon class="cls-1" points="264.25 0 212.55 116.16 522.73 834.59 619.66 834.59 264.25 0"/><polygon class="cls-1" points="960 836.26 863.07 836.26 561.5 122.13 572.83 94.34 572.97 94.04 608.89 5.98 609.97 8.56 960 836.26"/><path class="cls-1" d="M71,480.57a166.57,166.57,0,0,1-66.3-13.74c-84.4-36.45-123.36-134.69-86.86-219L132.36-244.93l30.31-60.58,12.58,6.29L145.1-239-69.25,253.41c-33.42,77.2,2.26,167.16,79.53,200.53a152.68,152.68,0,0,0,200.83-79.42L354.78,42.75,494.26-270.8l12.85,5.7L367.66,48.39,224,380.1A167.06,167.06,0,0,1,72.35,480.57H71" transform="translate(95.85 326.02)"/><text class="cls-2" transform="translate(57.46 1028.19)">მ</text><text class="cls-2" transform="translate(133.63 1028.19)">ა</text><text class="cls-2" transform="translate(207.22 1028.19)">ქ</text><text class="cls-2" transform="translate(283.4 1028.19)">ს</text><text class="cls-2" transform="translate(359 1028.19)">თ</text><text class="cls-2" transform="translate(468.26 1028.19)">ე</text><text class="cls-2" transform="translate(540.7 1028.19)">რ</text><text class="cls-2" transform="translate(651.39 1028.19)">მ</text><text class="cls-2" transform="translate(727.56 1028.19)">ი</text></svg>