<svg width="936" height="182" viewBox="0 0 936 182" fill="none" xmlns="http://www.w3.org/2000/svg">
<path d="M881.5 47.67C884.24 49.51 887.94 48.77 889.77 46.02L903.45 25.43C907.19 19.81 905.68 12.2 900.09 8.44001C894.5 4.68001 886.93 6.19001 883.2 11.82L876.43 22.01C870.78 30.51 873.06 41.99 881.5 47.67Z" fill="white"/>
<path d="M889.03 64.02C889.67 67.27 892.81 69.38 896.04 68.73L920.19 63.9C926.79 62.58 931.07 56.13 929.76 49.5C928.45 42.87 922.04 38.56 915.44 39.88L903.49 42.27C893.52 44.26 887.05 54 889.04 64.03" fill="white"/>
<path d="M908.38 75.84C899.93 70.16 888.51 72.45 882.86 80.94C881.03 83.69 881.77 87.42 884.51 89.26L904.98 103.02C910.57 106.78 918.14 105.27 921.87 99.64C925.61 94.01 924.1 86.41 918.51 82.65L908.38 75.84Z" fill="white"/>
<path d="M861.91 95.57L866.71 119.86C868.02 126.49 874.43 130.8 881.03 129.48C887.63 128.16 891.91 121.71 890.6 115.08L888.22 103.06C886.24 93.04 876.55 86.53 866.59 88.52C863.36 89.16 861.26 92.32 861.91 95.57Z" fill="white"/>
<path d="M841.5 83.97L827.82 104.56C824.08 110.18 825.59 117.79 831.18 121.55C836.77 125.31 844.33 123.8 848.07 118.17L854.84 107.98C860.49 99.48 858.21 88 849.76 82.32C847.02 80.48 843.32 81.22 841.49 83.97" fill="white"/>
<path d="M801.5 80.48C802.81 87.11 809.22 91.42 815.82 90.1L827.77 87.71C837.74 85.72 844.21 75.98 842.22 65.95C841.58 62.7 838.44 60.59 835.21 61.24L811.06 66.07C804.46 67.39 800.18 73.84 801.49 80.47L801.5 80.48Z" fill="white"/>
<path d="M812.76 47.33L822.89 54.14C831.34 59.82 842.76 57.53 848.41 49.04C850.24 46.28 849.5 42.56 846.76 40.72L826.29 26.96C820.7 23.2 813.13 24.71 809.4 30.34C805.66 35.96 807.17 43.57 812.76 47.33Z" fill="white"/>
<path d="M930.52 159.94H802.54C799.78 159.94 797.53 162.18 797.53 164.95V175.61C797.53 178.37 799.77 180.62 802.54 180.62H930.52C933.28 180.62 935.53 178.38 935.53 175.61V164.95C935.53 162.18 933.29 159.94 930.52 159.94Z" fill="white"/>
<path d="M843.04 26.92C845.02 36.94 854.71 43.45 864.67 41.46C867.9 40.81 870 37.66 869.36 34.41L864.55 10.12C863.24 3.49001 856.83 -0.819989 850.23 0.500011C843.63 1.82001 839.35 8.27 840.66 14.9L843.04 26.92Z" fill="white"/>
<path d="M59.6699 54.46C28.6899 54.46 4.54994 68.44 4.54994 96.9C4.54994 104.34 8.53994 108.43 23.6299 108.43C38.7199 108.43 42.7099 104.34 42.7099 96.9C42.7099 69.08 55.6099 69.6 59.6699 69.6C73.3599 69.6 80.7499 91.37 80.7499 118.24C80.7499 145.11 73.3499 166.88 59.6699 166.88C55.6099 166.88 38.5899 167.4 38.5899 139.58C38.5899 132.14 34.5999 128.05 19.5099 128.05C4.41993 128.05 0.429932 132.14 0.429932 139.58C0.429932 169.81 28.6999 182.01 59.6799 182.01C98.1399 182.01 118.93 153.46 118.93 118.24C118.93 83.02 98.1399 54.47 59.6799 54.47" fill="white"/>
<path d="M324.29 54.46C293.31 54.46 269.17 68.44 269.17 96.9C269.17 104.34 273.16 108.43 288.25 108.43C303.34 108.43 307.33 104.34 307.33 96.9C307.33 69.08 320.23 69.6 324.29 69.6C337.98 69.6 345.37 91.37 345.37 118.24C345.37 145.11 337.97 166.88 324.29 166.88C320.23 166.88 303.21 167.4 303.21 139.58C303.21 132.14 299.22 128.05 284.13 128.05C269.04 128.05 265.05 132.14 265.05 139.58C265.05 169.81 293.32 182.01 324.3 182.01C362.76 182.01 383.55 153.46 383.55 118.24C383.55 83.02 362.76 54.47 324.3 54.47" fill="white"/>
<path d="M717.16 55.08C681.32 55.08 660.1 77.57 660.1 118.13C660.1 140.86 666.08 158.31 669.89 168.63C674.28 180.53 678.91 181.37 686.65 181.37C697.38 181.37 707.51 182.76 703.28 161.03C700.79 148.2 697.26 131.76 697.26 118.27C697.26 92.37 698.72 70.09 717.17 70.09C735.62 70.09 737.07 92.38 737.07 118.27C737.07 131.76 733.54 148.2 731.05 161.03C726.82 182.76 736.95 181.37 747.68 181.37C755.42 181.37 760.05 180.53 764.44 168.63C768.25 158.31 774.23 140.86 774.23 118.13C774.23 77.57 753 55.08 717.17 55.08" fill="white"/>
<path d="M215.25 113.82V112.68C236.25 108.79 245.64 97.97 245.64 84.42C245.64 66.12 219.36 54.48 191.35 54.48C163.34 54.48 137.04 65.6 137.04 89.63C137.27 100.66 140.17 101.45 154.72 101.45C169.27 101.45 172.42 99.01 172.42 86.42C172.42 71.68 187.27 69.58 191.33 69.58C204.69 69.58 210.33 79.88 210.33 87.71C210.33 116.03 179.51 101.29 179.51 113.26C179.51 125.23 212.42 111.1 212.42 144.24C212.42 155.94 205.03 166.84 191.36 166.85C187.3 166.85 170.24 167.37 170.24 139.56C170.24 132.12 166.26 128.01 151.17 128.01C136.08 128.01 132.09 132.1 132.09 139.54C132.09 168.75 160.38 181.97 191.35 181.97C229.79 181.97 250.58 164.66 250.58 145.33C250.58 130.5 238.31 117.82 215.25 113.81" fill="white"/>
<path d="M498.31 54.46C477.87 54.46 476.56 59.88 476.56 69.59C476.56 72.08 476.56 78.48 476.56 78.48C468.32 74.94 452.44 72.25 440.55 73.4C423.02 75.09 405.38 80.82 405.38 94.88C405.38 110.48 418.29 109.35 424.23 109.35C439.21 109.35 441.07 103.77 443.08 98.43C445.91 90.92 451.04 88.44 458.08 88.44C473.47 88.44 476.96 110.05 476.96 127.65C476.96 148.52 470.09 166.86 454.62 166.86C450.56 166.86 433.54 167.38 433.54 139.56C433.54 132.12 429.55 128.03 414.46 128.03C399.37 128.03 395.38 132.12 395.38 139.56C395.38 168.35 423.65 181.99 454.63 181.99C493.09 181.99 513.88 156.37 513.88 118.22V68.92C513.88 60.93 515.23 54.45 498.3 54.45" fill="white"/>
<path d="M625.72 109.53C625.72 107.75 627.61 106.92 627.61 104.39C627.61 100.58 623.91 100.09 613.69 100.09C602.36 100.09 598.68 101.28 598.68 108.32C598.68 120 611.29 123.02 611.29 142.74C611.29 156.2 603.69 166.88 591.39 166.88C570.74 166.88 570.28 144.28 570.28 118.24V69.6C570.28 59.89 568.12 54.47 547.68 54.47C530.75 54.47 532.11 60.95 532.11 68.94V119.42C532.11 160.11 550.68 182.01 591.38 182.01C621.01 182.01 646.35 164.24 646.35 142.74C646.35 118.24 625.71 115.06 625.71 109.54" fill="white"/>
</svg>